# xmcd
#
# Track frame offsets:
# 150
# 15751
# 30976
# 47515
# 57744
# 68368
# 82547
# 97529
# 107206
# 121305
# 140598
# 158256
# 176493
# 190089
# 205495
# 225300
# 236133
# 248593
# 261072
# 272665
# 286580
# 298770
# 317154
#
# Disc length: 4292 seconds
#
# Revision: 0
# Processed by: cddbd v1.5.1PL0 Copyright (c) Steve Scherf et al.
# Submitted via: Audion 3.0.2 (http://www.panic.com/audion/)
#
DISCID=1f10c217
DTITLE=un dia cualquiera - nacha pop
DYEAR=1900
DGENRE=
TTITLE0=chica de ayer
TTITLE1=Nadie puede parar
TTITLE2=Antes que salga el sol
TTITLE3=Atras
TTITLE4=Una decima de segundo
TTITLE5=Sonrisa de ganador
TTITLE6=Magia y precision
TTITLE7=Sol del caribe
TTITLE8=Grite una noche
TTITLE9=Relojes en la oscuridad
TTITLE10=Vistete
TTITLE11=Lucha de gigantes
TTITLE12=Buque que no llega
TTITLE13=Dejame algo
TTITLE14=Miedo al terror
TTITLE15=Juego sucio
TTITLE16=Visiones
TTITLE17=No necesitas mas
TTITLE18=Ruidos en el desvan
TTITLE19=Frases
TTITLE20=Puedo estallar
TTITLE21=El sueño
TTITLE22=Bonus
EXTD=
EXTT0=
EXTT1=
EXTT2=
EXTT3=
EXTT4=
EXTT5=
EXTT6=
EXTT7=
EXTT8=
EXTT9=
EXTT10=
EXTT11=
EXTT12=
EXTT13=
EXTT14=
EXTT15=
EXTT16=
EXTT17=
EXTT18=
EXTT19=
EXTT20=
EXTT21=
EXTT22=
PLAYORDER=
